<svg class="icon" viewBox="0 0 1024 1024" xmlns="http://www.w3.org/2000/svg" width="32" height="32"><defs><style/></defs><path d="M900.608 197.12c16.896 4.096 28.672 19.456 28.672 36.864v525.312c0 20.992-16.896 37.888-37.888 37.888-2.048 0-4.096 0-5.632-.512-78.336-12.8-140.8-18.944-187.392-18.944-82.432 0-240.128 47.104-346.112 58.368-62.464 6.144-135.68 6.144-219.136-1.024-19.456-1.536-34.304-17.92-34.304-37.376V271.872c0-20.992 16.896-37.888 37.888-37.888h2.56c93.696 6.656 164.352 6.656 212.48 0 82.432-12.288 248.832-51.2 346.112-58.368 58.368-3.584 125.952 3.072 202.752 21.504zm-144.896 66.56c-35.328 0-64 28.672-64 64v5.12l.512 5.12-82.432 59.904c-27.648-27.136-65.536-42.496-104.448-41.984-44.032 0-83.968 18.944-111.104 49.152l-7.68 9.728-66.048-38.4v-1.024c0-35.328-28.672-64-64-64s-64 28.672-64 64 28.672 64 64 64c10.24 0 20.48-2.56 29.696-7.168l6.144-3.584 67.584 39.424c-7.68 28.16-6.656 58.88 2.56 87.04l4.096 10.752-77.824 58.88c-30.72-17.408-69.632-6.656-87.04 24.064s-6.656 69.632 24.064 87.04c7.168 4.096 15.36 6.656 23.552 7.68l7.68.512 7.68-.512c28.672-3.584 51.712-26.112 55.296-55.296l.512-7.68-.512-6.144 80.384-59.904c8.704 8.704 18.944 16.384 29.184 22.528l10.752 5.632-4.608 41.984h144.896L575.488 640c13.312-6.656 25.088-15.872 35.84-26.112l9.728-10.752 72.192 41.984v1.024c0 35.328 28.672 64 64 64s64-28.672 64-64-28.672-64-64-64c-10.24 0-20.48 2.56-29.696 7.168l-6.144 3.584-71.68-41.472c9.216-30.208 8.704-63.488-1.536-93.696l-4.096-11.776 84.48-61.44c31.744 15.36 70.144 2.048 85.504-29.696s2.048-70.144-29.696-85.504c-10.24-3.584-19.456-5.632-28.672-5.632zM505.856 565.248l26.112 52.224h-52.736c-.512.512 26.624-52.224 26.624-52.224zm-61.952-94.72c23.04 0 41.472 18.432 41.472 41.472s-18.432 41.472-41.472 41.472S402.432 535.04 402.432 512s18.432-41.472 41.472-41.472zm130.048-.512c23.04 0 41.472 18.432 41.472 41.472s-18.432 41.472-41.472 41.472-41.472-18.432-41.472-41.472c0-22.528 18.432-41.472 41.472-41.472z" fill="#535353"/></svg>